<svg width="2230" height="785" viewBox="0 0 2230 785" fill="none" xmlns="http://www.w3.org/2000/svg">
<g clip-path="url(#clip0_501_602)">
<path d="M0.000976562 597.43L2229.58 4.00049V186.366L0.00107574 780.499L0.000976562 597.43Z" fill="url(#paint0_linear_501_602)"/>
<path d="M-7.65257 739.964L-30.8428 653.417L-10.937 648.083L4.16972 704.462L30.3585 637.018L49.1515 631.983L72.3415 718.53L52.5595 723.83L37.4855 667.575L11.2641 734.895L-7.65257 739.964ZM93.8905 712.756L70.7005 626.209L131.778 609.843L136.027 626.196L90.2805 638.454L93.6295 632.654L113.797 707.422L93.8905 712.756ZM167.18 693.118L143.99 606.571L181.453 596.533C189.201 594.457 196.22 593.945 202.509 594.999C208.777 595.97 214.065 598.396 218.373 602.277C222.682 606.158 225.709 611.354 227.454 617.866C229.176 624.295 229.142 630.267 227.351 635.783C225.56 641.298 222.205 646.084 217.285 650.141C212.342 654.116 205.997 657.141 198.249 659.217L171.914 666.274L178.398 654.863L187.21 687.751L167.18 693.118ZM178.994 657.089L167.541 649.954L192.763 643.195C198.945 641.539 203.208 638.983 205.551 635.528C207.894 632.074 208.436 627.997 207.177 623.299C205.896 618.518 203.377 615.218 199.621 613.397C195.864 611.577 190.895 611.495 184.713 613.151L159.491 619.909L165.842 608.004L178.994 657.089ZM281.785 600.127C292.253 597.322 300.96 597.507 307.906 600.682C314.831 603.773 319.54 609.976 322.036 619.291C324.686 629.182 323.523 637.533 318.545 644.344C313.65 651.133 305.639 656.018 294.512 658.999L255.442 669.468L232.252 582.921L252.158 577.587L259.777 606.024L281.785 600.127ZM289.423 644.461C294.534 643.092 298.23 640.732 300.513 637.382C302.796 634.031 303.286 629.925 301.982 625.061C300.701 620.281 298.301 617.258 294.782 615.992C291.323 614.622 286.997 614.633 281.804 616.024L263.753 620.861L271.372 649.298L289.423 644.461ZM341.122 646.51L317.933 559.963L337.839 554.629L361.029 641.176L341.122 646.51ZM417.596 626.019L394.407 539.472L414.312 534.138L429.419 590.517L455.607 523.073L474.401 518.038L497.591 604.585L477.809 609.885L462.734 553.63L436.513 620.95L417.596 626.019ZM519.14 598.811L495.948 512.264L557.026 495.898L561.276 512.251L515.53 524.509L518.879 518.709L539.044 593.477L519.14 598.811ZM592.429 579.173L569.239 492.626L606.702 482.588C614.45 480.512 621.468 480 627.758 481.054C634.026 482.025 639.314 484.451 643.622 488.332C647.931 492.213 650.958 497.409 652.702 503.921C654.425 510.35 654.39 516.322 652.599 521.838C650.808 527.353 647.454 532.139 642.533 536.196C637.591 540.171 631.245 543.196 623.497 545.272L597.163 552.329L603.646 540.918L612.458 573.806L592.429 579.173ZM604.242 543.143L592.789 536.009L618.012 529.25C624.194 527.594 628.456 525.038 630.799 521.583C633.142 518.129 633.685 514.052 632.426 509.354C631.145 504.573 628.626 501.273 624.869 499.452C621.113 497.632 616.143 497.55 609.961 499.206L584.74 505.964L591.091 494.059L604.242 543.143ZM707.034 486.182C717.502 483.377 726.209 483.562 733.155 486.736C740.079 489.828 744.788 496.031 747.284 505.345C749.934 515.237 748.772 523.588 743.794 530.399C738.899 537.188 730.887 542.073 719.76 545.054L680.69 555.523L657.5 468.976L677.406 463.642L685.026 492.079L707.034 486.182ZM714.672 530.516C719.783 529.147 723.479 526.787 725.762 523.436C728.045 520.086 728.534 515.979 727.231 511.116C725.95 506.336 723.55 503.313 720.031 502.047C716.571 500.677 712.245 500.688 707.052 502.079L689 506.916L696.62 535.353L714.672 530.516ZM766.372 532.565L743.182 446.018L763.088 440.684L786.278 527.231L766.372 532.565ZM842.846 512.074L819.655 425.527L839.56 420.193L854.668 476.572L880.856 409.128L899.648 404.093L922.84 490.639L903.057 495.94L887.984 439.685L861.762 507.005L842.846 512.074ZM944.39 484.865L921.2 398.319L982.28 381.953L986.53 398.306L940.78 410.564L944.13 404.764L964.29 479.532L944.39 484.865ZM1017.68 465.228L994.49 378.681L1031.95 368.643C1039.7 366.567 1046.72 366.055 1053.01 367.109C1059.27 368.079 1064.56 370.505 1068.87 374.387C1073.18 378.268 1076.21 383.464 1077.95 389.976C1079.67 396.405 1079.64 402.377 1077.85 407.893C1076.06 413.408 1072.7 418.194 1067.78 422.251C1062.84 426.226 1056.49 429.251 1048.75 431.327L1022.41 438.384L1028.9 426.973L1037.71 459.861L1017.68 465.228ZM1029.49 429.198L1018.04 422.063L1043.26 415.305C1049.44 413.649 1053.71 411.093 1056.05 407.638C1058.39 404.184 1058.93 400.107 1057.67 395.409C1056.39 390.628 1053.87 387.327 1050.12 385.507C1046.36 383.687 1041.39 383.605 1035.21 385.261L1009.99 392.019L1016.34 380.114L1029.49 429.198ZM1132.28 372.237C1142.75 369.432 1151.46 369.617 1158.4 372.791C1165.33 375.883 1170.04 382.086 1172.53 391.4C1175.18 401.291 1174.02 409.643 1169.04 416.454C1164.15 423.242 1156.14 428.128 1145.01 431.109L1105.94 441.578L1082.75 355.031L1102.66 349.697L1110.27 378.134L1132.28 372.237ZM1139.92 416.571C1145.03 415.201 1148.73 412.842 1151.01 409.491C1153.29 406.141 1153.78 402.034 1152.48 397.171C1151.2 392.391 1148.8 389.367 1145.28 388.102C1141.82 386.732 1137.49 386.743 1132.3 388.134L1114.25 392.971L1121.87 421.408L1139.92 416.571ZM1191.62 418.62L1168.43 332.073L1188.34 326.739L1211.53 413.286L1191.62 418.62ZM1268.09 398.129L1244.9 311.582L1264.81 306.248L1279.92 362.627L1306.11 295.183L1324.9 290.147L1348.09 376.694L1328.31 381.995L1313.23 325.739L1287.01 393.06L1268.09 398.129ZM1369.64 370.92L1346.45 284.373L1407.52 268.008L1411.77 284.361L1366.03 296.619L1369.38 290.818L1389.54 365.587L1369.64 370.92ZM1442.93 351.283L1419.74 264.736L1457.2 254.698C1464.95 252.621 1471.97 252.11 1478.26 253.163C1484.52 254.134 1489.81 256.56 1494.12 260.441C1498.43 264.323 1501.46 269.519 1503.2 276.031C1504.92 282.46 1504.89 288.432 1503.1 293.947C1501.31 299.463 1497.95 304.249 1493.03 308.306C1488.09 312.281 1481.74 315.306 1474 317.382L1447.66 324.439L1454.14 313.028L1462.96 345.916L1442.93 351.283ZM1454.74 315.253L1443.29 308.118L1468.51 301.36C1474.69 299.704 1478.95 297.148 1481.3 293.693C1483.64 290.238 1484.18 286.162 1482.92 281.464C1481.64 276.683 1479.12 273.382 1475.37 271.562C1471.61 269.742 1466.64 269.66 1460.46 271.316L1435.24 278.074L1441.59 266.169L1454.74 315.253ZM1557.53 258.292C1568 255.487 1576.71 255.672 1583.65 258.846C1590.58 261.938 1595.29 268.141 1597.78 277.455C1600.43 287.346 1599.27 295.697 1594.29 302.508C1589.4 309.297 1581.39 314.183 1570.26 317.164L1531.19 327.633L1508 241.086L1527.9 235.752L1535.52 264.189L1557.53 258.292ZM1565.17 302.626C1570.28 301.256 1573.98 298.897 1576.26 295.546C1578.54 292.196 1579.03 288.089 1577.73 283.226C1576.45 278.446 1574.05 275.422 1570.53 274.157C1567.07 272.787 1562.74 272.797 1557.55 274.189L1539.5 279.026L1547.12 307.463L1565.17 302.626ZM1616.87 304.675L1593.68 218.128L1613.59 212.794L1636.78 299.341L1616.87 304.675ZM1693.34 284.184L1670.15 197.637L1690.06 192.303L1705.17 248.682L1731.35 181.238L1750.15 176.202L1773.34 262.749L1753.56 268.05L1738.48 211.794L1712.26 279.115L1693.34 284.184ZM1794.89 256.975L1771.7 170.428L1832.77 154.063L1837.02 170.416L1791.28 182.674L1794.63 176.873L1814.79 251.642L1794.89 256.975ZM1868.18 237.337L1844.99 150.79L1882.45 140.752C1890.2 138.676 1897.21 138.165 1903.5 139.218C1909.77 140.189 1915.06 142.615 1919.37 146.496C1923.68 150.377 1926.7 155.574 1928.45 162.085C1930.17 168.515 1930.14 174.487 1928.35 180.002C1926.56 185.518 1923.2 190.304 1918.28 194.361C1913.34 198.336 1906.99 201.361 1899.24 203.437L1872.91 210.494L1879.39 199.083L1888.21 231.971L1868.18 237.337ZM1879.99 201.308L1868.54 194.173L1893.76 187.415C1899.94 185.759 1904.2 183.203 1906.55 179.748C1908.89 176.293 1909.43 172.217 1908.17 167.519C1906.89 162.738 1904.37 159.437 1900.62 157.617C1896.86 155.796 1891.89 155.714 1885.71 157.371L1860.49 164.129L1866.84 152.224L1879.99 201.308ZM1982.78 144.347C1993.25 141.542 2001.96 141.727 2008.9 144.901C2015.83 147.993 2020.54 154.196 2023.03 163.51C2025.68 173.401 2024.52 181.752 2019.54 188.563C2014.65 195.352 2006.63 200.238 1995.51 203.219L1956.44 213.688L1933.25 127.141L1953.15 121.807L1960.77 150.244L1982.78 144.347ZM1990.42 188.681C1995.53 187.311 1999.23 184.952 2001.51 181.601C2003.79 178.251 2004.28 174.144 2002.98 169.281C2001.7 164.5 1999.3 161.477 1995.78 160.212C1992.32 158.842 1987.99 158.852 1982.8 160.244L1964.75 165.081L1972.37 193.517L1990.42 188.681ZM2042.12 190.73L2018.93 104.183L2038.83 98.8489L2062.02 185.396L2042.12 190.73ZM2118.59 170.239L2095.4 83.6917L2115.31 78.358L2130.41 134.737L2156.6 67.2929L2175.4 62.2574L2198.59 148.804L2178.8 154.105L2163.73 97.8494L2137.51 165.17L2118.59 170.239ZM2220.14 143.03L2196.94 56.4834L2258.02 40.1177L2262.27 56.4711L2216.53 68.7288L2219.87 62.9284L2240.04 137.696L2220.14 143.03Z" fill="white"/>
</g>
<defs>
<linearGradient id="paint0_linear_501_602" x1="23.295" y1="684.363" x2="2206.29" y2="99.4317" gradientUnits="userSpaceOnUse">
<stop stop-color="#6B16C0"/>
<stop offset="1" stop-color="#504BE0"/>
</linearGradient>
<clipPath id="clip0_501_602">
<rect width="2230" height="785" fill="white"/>
</clipPath>
</defs>
</svg>
