<svg width="1920" height="1180" viewBox="0 0 1920 1180" fill="none" xmlns="http://www.w3.org/2000/svg">
<g clip-path="url(#clip0_501_585)">
<mask id="mask0_501_585" style="mask-type:luminance" maskUnits="userSpaceOnUse" x="0" y="0" width="1920" height="1180">
<path d="M1920 0H0V1180H1920V0Z" fill="white"/>
</mask>
<g mask="url(#mask0_501_585)">
<path d="M1920 0H0V1180H1920V0Z" fill="#141414"/>
<path d="M1564.29 878.854C1938.91 882.529 2245.59 579.45 2249.29 201.908C2253 -175.634 1952.32 -484.671 1577.71 -488.346C1203.09 -492.021 896.409 -188.942 892.705 188.6C889.002 566.142 1189.68 875.179 1564.29 878.854Z" fill="url(#paint0_linear_501_585)"/>
<path d="M2121.99 976.999L-61 1561.93L-14.4126 1735.8L2168.58 1150.87L2121.99 976.999Z" fill="url(#paint1_linear_501_585)"/>
<path d="M-899.667 1926.13L-922.857 1839.58L-902.951 1834.25L-887.845 1890.62L-861.656 1823.18L-842.863 1818.15L-819.673 1904.69L-839.455 1909.99L-854.529 1853.74L-880.75 1921.06L-899.667 1926.13ZM-798.124 1898.92L-821.314 1812.37L-760.237 1796.01L-755.987 1812.36L-801.734 1824.62L-798.385 1818.82L-778.218 1893.58L-798.124 1898.92ZM-724.834 1879.28L-748.025 1792.73L-710.562 1782.7C-702.814 1780.62 -695.795 1780.11 -689.506 1781.16C-683.238 1782.13 -677.95 1784.56 -673.641 1788.44C-669.333 1792.32 -666.306 1797.52 -664.561 1804.03C-662.839 1810.46 -662.873 1816.43 -664.663 1821.95C-666.454 1827.46 -669.81 1832.25 -674.73 1836.3C-679.673 1840.28 -686.018 1843.3 -693.766 1845.38L-720.101 1852.44L-713.617 1841.03L-704.805 1873.91L-724.834 1879.28ZM-713.021 1843.25L-724.474 1836.12L-699.252 1829.36C-693.07 1827.7 -688.807 1825.15 -686.464 1821.69C-684.121 1818.24 -683.579 1814.16 -684.838 1809.46C-686.119 1804.68 -688.638 1801.38 -692.394 1799.56C-696.151 1797.74 -701.12 1797.66 -707.302 1799.31L-732.524 1806.07L-726.173 1794.17L-713.021 1843.25ZM-610.23 1786.29C-599.762 1783.48 -591.055 1783.67 -584.108 1786.84C-577.184 1789.94 -572.474 1796.14 -569.979 1805.45C-567.328 1815.34 -568.492 1823.7 -573.469 1830.51C-578.364 1837.3 -586.376 1842.18 -597.503 1845.16L-636.573 1855.63L-659.763 1769.08L-639.857 1763.75L-632.238 1792.19L-610.23 1786.29ZM-602.591 1830.62C-597.481 1829.25 -593.784 1826.89 -591.502 1823.54C-589.219 1820.19 -588.729 1816.09 -590.032 1811.22C-591.313 1806.44 -593.714 1803.42 -597.233 1802.15C-600.692 1800.78 -605.018 1800.8 -610.211 1802.19L-628.262 1807.02L-620.643 1835.46L-602.591 1830.62ZM-550.891 1832.67L-574.082 1746.13L-554.176 1740.79L-530.986 1827.34L-550.891 1832.67ZM-474.418 1812.18L-497.608 1725.63L-477.702 1720.3L-462.596 1776.68L-436.407 1709.24L-417.614 1704.2L-394.424 1790.75L-414.206 1796.05L-429.28 1739.79L-455.501 1807.11L-474.418 1812.18ZM-372.875 1784.97L-396.065 1698.43L-334.988 1682.06L-330.739 1698.41L-376.485 1710.67L-373.136 1704.87L-352.969 1779.64L-372.875 1784.97ZM-299.586 1765.34L-322.776 1678.79L-285.313 1668.75C-277.565 1666.67 -270.546 1666.16 -264.257 1667.22C-257.989 1668.19 -252.701 1670.61 -248.393 1674.49C-244.084 1678.38 -241.057 1683.57 -239.312 1690.08C-237.59 1696.51 -237.624 1702.48 -239.415 1708C-241.205 1713.52 -244.561 1718.3 -249.481 1722.36C-254.424 1726.33 -260.769 1729.36 -268.517 1731.43L-294.852 1738.49L-288.368 1727.08L-279.556 1759.97L-299.586 1765.34ZM-287.772 1729.31L-299.225 1722.17L-274.003 1715.41C-267.821 1713.76 -263.558 1711.2 -261.215 1707.75C-258.872 1704.29 -258.33 1700.21 -259.589 1695.52C-260.87 1690.74 -263.389 1687.44 -267.145 1685.61C-270.902 1683.79 -275.871 1683.71 -282.053 1685.37L-307.275 1692.13L-300.924 1680.22L-287.772 1729.31ZM-184.981 1672.34C-174.513 1669.54 -165.806 1669.72 -158.86 1672.9C-151.935 1675.99 -147.226 1682.19 -144.73 1691.51C-142.08 1701.4 -143.243 1709.75 -148.221 1716.56C-153.116 1723.35 -161.127 1728.24 -172.254 1731.22L-211.324 1741.69L-234.514 1655.14L-214.608 1649.8L-206.989 1678.24L-184.981 1672.34ZM-177.342 1716.68C-172.232 1715.31 -168.536 1712.95 -166.253 1709.6C-163.97 1706.25 -163.48 1702.14 -164.784 1697.28C-166.064 1692.5 -168.465 1689.48 -171.984 1688.21C-175.443 1686.84 -179.769 1686.85 -184.962 1688.24L-203.013 1693.08L-195.394 1721.52L-177.342 1716.68ZM-125.643 1718.73L-148.833 1632.18L-128.927 1626.85L-105.737 1713.39L-125.643 1718.73ZM-49.1691 1698.24L-72.3593 1611.69L-52.4536 1606.36L-37.3469 1662.73L-11.1583 1595.29L7.63477 1590.25L30.825 1676.8L11.0428 1682.1L-4.03088 1625.85L-30.2526 1693.17L-49.1691 1698.24ZM52.3738 1671.03L29.1835 1584.48L90.261 1568.12L94.5104 1584.47L48.7642 1596.73L52.113 1590.93L72.2795 1665.69L52.3738 1671.03ZM125.663 1651.39L102.473 1564.84L139.936 1554.81C147.684 1552.73 154.702 1552.22 160.992 1553.27C167.26 1554.24 172.548 1556.67 176.856 1560.55C181.165 1564.43 184.192 1569.63 185.936 1576.14C187.659 1582.57 187.625 1588.54 185.834 1594.06C184.043 1599.57 180.688 1604.36 175.768 1608.41C170.825 1612.39 164.48 1615.41 156.732 1617.49L130.397 1624.55L136.88 1613.14L145.693 1646.02L125.663 1651.39ZM137.477 1615.36L126.024 1608.23L151.246 1601.47C157.428 1599.81 161.691 1597.26 164.034 1593.8C166.377 1590.35 166.919 1586.27 165.66 1581.57C164.379 1576.79 161.86 1573.49 158.104 1571.67C154.347 1569.85 149.378 1569.77 143.196 1571.42L117.974 1578.18L124.325 1566.28L137.477 1615.36ZM240.268 1558.4C250.736 1555.59 259.443 1555.78 266.389 1558.95C273.313 1562.05 278.023 1568.25 280.519 1577.56C283.169 1587.45 282.006 1595.8 277.028 1602.62C272.133 1609.4 264.122 1614.29 252.995 1617.27L213.925 1627.74L190.735 1541.19L210.64 1535.86L218.26 1564.3L240.268 1558.4ZM247.906 1602.73C253.017 1601.36 256.713 1599 258.996 1595.65C261.279 1592.3 261.768 1588.2 260.465 1583.33C259.184 1578.55 256.784 1575.53 253.265 1574.26C249.806 1572.89 245.48 1572.91 240.287 1574.3L222.236 1579.13L229.855 1607.57L247.906 1602.73ZM299.606 1604.78L276.416 1518.24L296.322 1512.9L319.512 1599.45L299.606 1604.78ZM376.08 1584.29L352.889 1497.74L372.795 1492.41L387.902 1548.79L414.09 1481.35L432.884 1476.31L456.074 1562.86L436.292 1568.16L421.218 1511.9L394.996 1579.22L376.08 1584.29ZM477.623 1557.08L454.432 1470.54L515.51 1454.17L519.759 1470.52L474.013 1482.78L477.362 1476.98L497.528 1551.75L477.623 1557.08ZM550.912 1537.44L527.722 1450.9L565.184 1440.86C572.932 1438.78 579.951 1438.27 586.241 1439.33C592.508 1440.3 597.796 1442.72 602.105 1446.6C606.414 1450.48 609.44 1455.68 611.185 1462.19C612.908 1468.62 612.874 1474.59 611.083 1480.11C609.292 1485.63 605.937 1490.41 601.016 1494.47C596.074 1498.44 589.729 1501.47 581.981 1503.54L555.646 1510.6L562.129 1499.19L570.942 1532.08L550.912 1537.44ZM562.726 1501.42L551.273 1494.28L576.495 1487.52C582.677 1485.87 586.939 1483.31 589.282 1479.86C591.625 1476.4 592.167 1472.32 590.909 1467.63C589.628 1462.85 587.109 1459.54 583.352 1457.72C579.596 1455.9 574.627 1455.82 568.445 1457.48L543.222 1464.24L549.574 1452.33L562.726 1501.42ZM665.517 1444.45C675.985 1441.65 684.692 1441.83 691.638 1445.01C698.562 1448.1 703.272 1454.3 705.768 1463.62C708.418 1473.51 707.255 1481.86 702.277 1488.67C697.382 1495.46 689.371 1500.35 678.243 1503.33L639.174 1513.8L615.983 1427.25L635.889 1421.91L643.509 1450.35L665.517 1444.45ZM673.155 1488.79C678.266 1487.42 681.962 1485.06 684.245 1481.71C686.527 1478.36 687.017 1474.25 685.714 1469.39C684.433 1464.61 682.033 1461.58 678.513 1460.32C675.054 1458.95 670.728 1458.96 665.536 1460.35L647.484 1465.19L655.104 1493.63L673.155 1488.79ZM724.855 1490.84L701.665 1404.29L721.571 1398.96L744.761 1485.5L724.855 1490.84ZM801.328 1470.35L778.138 1383.8L798.044 1378.47L813.151 1434.84L839.339 1367.4L858.132 1362.36L881.323 1448.91L861.54 1454.21L846.467 1397.96L820.245 1465.28L801.328 1470.35ZM902.871 1443.14L879.681 1356.59L940.759 1340.23L945.008 1356.58L899.262 1368.84L902.611 1363.04L922.777 1437.8L902.871 1443.14ZM976.161 1423.5L952.971 1336.95L990.433 1326.91C998.181 1324.84 1005.2 1324.33 1011.49 1325.38C1017.76 1326.35 1023.05 1328.78 1027.35 1332.66C1031.66 1336.54 1034.69 1341.74 1036.43 1348.25C1038.16 1354.68 1038.12 1360.65 1036.33 1366.16C1034.54 1371.68 1031.19 1376.47 1026.27 1380.52C1021.32 1384.5 1014.98 1387.52 1007.23 1389.6L980.895 1396.66L987.378 1385.25L996.19 1418.13L976.161 1423.5ZM987.974 1387.47L976.522 1380.34L1001.74 1373.58C1007.93 1371.92 1012.19 1369.37 1014.53 1365.91C1016.87 1362.46 1017.42 1358.38 1016.16 1353.68C1014.88 1348.9 1012.36 1345.6 1008.6 1343.78C1004.84 1341.96 999.875 1341.88 993.694 1343.53L968.471 1350.29L974.822 1338.39L987.974 1387.47ZM1090.77 1330.51C1101.23 1327.7 1109.94 1327.89 1116.89 1331.06C1123.81 1334.16 1128.52 1340.36 1131.02 1349.67C1133.67 1359.56 1132.5 1367.91 1127.53 1374.73C1122.63 1381.51 1114.62 1386.4 1103.49 1389.38L1064.42 1399.85L1041.23 1313.3L1061.14 1307.97L1068.76 1336.41L1090.77 1330.51ZM1098.4 1374.84C1103.51 1373.47 1107.21 1371.11 1109.49 1367.76C1111.78 1364.41 1112.27 1360.31 1110.96 1355.44C1109.68 1350.66 1107.28 1347.64 1103.76 1346.37C1100.3 1345 1095.98 1345.01 1090.78 1346.41L1072.73 1351.24L1080.35 1379.68L1098.4 1374.84ZM1150.1 1376.89L1126.91 1290.35L1146.82 1285.01L1170.01 1371.56L1150.1 1376.89ZM1226.58 1356.4L1203.39 1269.85L1223.29 1264.52L1238.4 1320.9L1264.59 1253.46L1283.38 1248.42L1306.57 1334.97L1286.79 1340.27L1271.72 1284.01L1245.49 1351.33L1226.58 1356.4ZM1328.12 1329.19L1304.93 1242.65L1366.01 1226.28L1370.26 1242.63L1324.51 1254.89L1327.86 1249.09L1348.03 1323.86L1328.12 1329.19ZM1401.41 1309.55L1378.22 1223.01L1415.68 1212.97C1423.43 1210.89 1430.45 1210.38 1436.74 1211.44C1443.01 1212.41 1448.29 1214.83 1452.6 1218.71C1456.91 1222.59 1459.94 1227.79 1461.68 1234.3C1463.41 1240.73 1463.37 1246.7 1461.58 1252.22C1459.79 1257.74 1456.43 1262.52 1451.51 1266.58C1446.57 1270.55 1440.23 1273.58 1432.48 1275.65L1406.14 1282.71L1412.63 1271.3L1421.44 1304.19L1401.41 1309.55ZM1413.22 1273.53L1401.77 1266.39L1426.99 1259.63C1433.17 1257.98 1437.44 1255.42 1439.78 1251.97C1442.12 1248.51 1442.67 1244.43 1441.41 1239.74C1440.13 1234.96 1437.61 1231.65 1433.85 1229.83C1430.09 1228.01 1425.12 1227.93 1418.94 1229.59L1393.72 1236.35L1400.07 1224.44L1413.22 1273.53ZM1516.01 1216.56C1526.48 1213.76 1535.19 1213.94 1542.14 1217.12C1549.06 1220.21 1553.77 1226.41 1556.27 1235.73C1558.92 1245.62 1557.75 1253.97 1552.77 1260.78C1547.88 1267.57 1539.87 1272.45 1528.74 1275.44L1489.67 1285.91L1466.48 1199.36L1486.39 1194.02L1494.01 1222.46L1516.01 1216.56ZM1523.65 1260.9C1528.76 1259.53 1532.46 1257.17 1534.74 1253.82C1537.03 1250.47 1537.51 1246.36 1536.21 1241.5C1534.93 1236.72 1532.53 1233.69 1529.01 1232.43C1525.55 1231.06 1521.23 1231.07 1516.03 1232.46L1497.98 1237.3L1505.6 1265.73L1523.65 1260.9ZM1575.35 1262.95L1552.16 1176.4L1572.07 1171.07L1595.26 1257.61L1575.35 1262.95ZM1651.83 1242.46L1628.64 1155.91L1648.54 1150.58L1663.65 1206.95L1689.84 1139.51L1708.63 1134.47L1731.82 1221.02L1712.04 1226.32L1696.96 1170.07L1670.74 1237.39L1651.83 1242.46ZM1753.37 1215.25L1730.18 1128.7L1791.26 1112.34L1795.51 1128.69L1749.76 1140.95L1753.11 1135.15L1773.27 1209.91L1753.37 1215.25ZM1826.66 1195.61L1803.47 1109.06L1840.93 1099.02C1848.68 1096.95 1855.7 1096.44 1861.99 1097.49C1868.25 1098.46 1873.54 1100.89 1877.85 1104.77C1882.16 1108.65 1885.19 1113.85 1886.93 1120.36C1888.65 1126.79 1888.62 1132.76 1886.83 1138.27C1885.04 1143.79 1881.68 1148.58 1876.76 1152.63C1871.82 1156.61 1865.48 1159.63 1857.73 1161.71L1831.39 1168.77L1837.88 1157.35L1846.69 1190.24L1826.66 1195.61ZM1838.47 1159.58L1827.02 1152.45L1852.24 1145.69C1858.42 1144.03 1862.69 1141.48 1865.03 1138.02C1867.37 1134.57 1867.91 1130.49 1866.66 1125.79C1865.37 1121.01 1862.86 1117.71 1859.1 1115.89C1855.34 1114.07 1850.37 1113.99 1844.19 1115.64L1818.97 1122.4L1825.32 1110.5L1838.47 1159.58ZM1941.26 1102.62C1951.73 1099.81 1960.44 1100 1967.38 1103.17C1974.31 1106.27 1979.02 1112.47 1981.51 1121.78C1984.16 1131.67 1983 1140.02 1978.02 1146.84C1973.13 1153.62 1965.12 1158.51 1953.99 1161.49L1914.92 1171.96L1891.73 1085.41L1911.64 1080.08L1919.26 1108.52L1941.26 1102.62ZM1948.9 1146.95C1954.01 1145.58 1957.71 1143.22 1959.99 1139.87C1962.27 1136.52 1962.76 1132.42 1961.46 1127.55C1960.18 1122.77 1957.78 1119.75 1954.26 1118.48C1950.8 1117.11 1946.47 1117.12 1941.28 1118.52L1923.23 1123.35L1930.85 1151.79L1948.9 1146.95ZM2000.6 1149L1977.41 1062.45L1997.32 1057.12L2020.51 1143.67L2000.6 1149Z" fill="white"/>
</g>
<rect x="1206" y="923" width="714" height="257" fill="#141414"/>
</g>
<defs>
<linearGradient id="paint0_linear_501_585" x1="899.411" y1="-495" x2="1707.18" y2="1148.63" gradientUnits="userSpaceOnUse">
<stop stop-color="#4361EE"/>
<stop offset="1" stop-color="#7209B7"/>
</linearGradient>
<linearGradient id="paint1_linear_501_585" x1="-37.7063" y1="1648.86" x2="2145.29" y2="1063.93" gradientUnits="userSpaceOnUse">
<stop stop-color="#6B16C0"/>
<stop offset="1" stop-color="#504BE0"/>
</linearGradient>
<clipPath id="clip0_501_585">
<rect width="1920" height="1180" fill="white"/>
</clipPath>
</defs>
</svg>
