<svg width="111" height="93" viewBox="0 0 111 93" fill="none" xmlns="http://www.w3.org/2000/svg">
<path d="M108.226 1.31822C106.345 -0.156753 103.389 -0.367795 100.333 0.766267H100.328C97.1139 1.95831 9.34922 36.7548 5.77641 38.1764C5.12658 38.3851 -0.54877 40.3425 0.0358257 44.7025C0.557697 48.6334 5.11905 50.2615 5.67605 50.4493L27.9886 57.5111C29.4689 62.0659 34.9259 78.8705 36.1328 82.4605C36.8855 84.6985 38.1124 87.6392 40.2626 88.2444C42.1493 88.917 44.0261 88.3024 45.2404 87.4212L58.8818 75.7257L80.9033 91.6003L81.4277 91.8901C82.923 92.5024 84.3557 92.8085 85.7231 92.8085C86.7794 92.8085 87.793 92.6253 88.7615 92.2589C92.0608 91.0065 93.3805 88.1007 93.5185 87.7713L109.968 8.74181C110.971 4.52096 109.576 2.37344 108.226 1.31822ZM47.6666 60.3358L40.1396 78.889L32.6126 55.6976L90.3196 16.2721L47.6666 60.3358Z" fill="white"/>
</svg>
