<svg width="116" height="118" viewBox="0 0 116 118" fill="none" xmlns="http://www.w3.org/2000/svg">
<path d="M58.0562 0C26.2602 0 0.391113 26.4314 0.391113 58.9187C0.391113 91.4059 26.2602 117.837 58.0562 117.837C89.8547 117.837 115.721 91.4059 115.721 58.9187C115.721 26.4314 89.8547 0 58.0562 0ZM83.0603 70.5359C88.6688 75.6234 89.8347 77.4396 90.0252 77.7496C92.3494 81.5153 87.4478 81.9738 87.4478 81.9738H77.1183C77.1183 81.9738 74.6036 82.002 72.4549 80.5469C68.9524 78.203 65.2844 73.6586 62.707 74.4476C60.5433 75.1085 60.5634 78.0954 60.5634 80.6494C60.5634 81.5639 59.7937 81.9738 58.0562 81.9738C56.3187 81.9738 55.5966 81.9738 54.8269 81.9738C49.1682 81.9738 43.0282 80.0269 36.9031 73.4869C28.2383 64.2418 20.6391 45.6184 20.6391 45.6184C20.6391 45.6184 20.1903 44.6808 20.6792 44.1096C21.2333 43.4692 22.7401 43.5511 22.7401 43.5511L32.7563 43.5486C32.7563 43.5486 33.699 43.7305 34.3759 44.2172C34.935 44.6168 35.2459 45.3802 35.2459 45.3802C35.2459 45.3802 36.9282 51.0569 39.0718 54.6765C43.2588 61.7416 45.2069 61.9209 46.6285 61.1601C48.7044 60.0586 48.0275 52.5478 48.0275 52.5478C48.0275 52.5478 48.1202 49.3226 47.0371 47.8855C46.2023 46.7737 44.6052 46.182 43.9082 46.0898C43.3441 46.0155 44.2868 45.0062 45.4877 44.4298C47.0923 43.6997 49.2761 43.5127 53.0418 43.5486C55.9727 43.5768 56.8176 43.7561 57.9609 44.025C61.4183 44.8397 60.5634 46.9889 60.5634 54.5356C60.5634 56.9538 60.2374 60.3532 62.0225 61.4803C62.7922 61.9671 65.4298 62.5614 70.1232 54.7739C72.3521 51.0799 74.1247 44.9524 74.1247 44.9524C74.1247 44.9524 74.4907 44.2787 75.0599 43.9456C75.6415 43.6049 75.624 43.6126 76.4213 43.6126C77.2185 43.6126 85.2139 43.5486 86.969 43.5486C88.7215 43.5486 90.3662 43.5281 90.6495 44.5784C91.0556 46.0872 89.3558 51.2567 85.0485 56.8667C77.9707 66.0734 77.1859 65.2127 83.0603 70.5359Z" fill="white"/>
</svg>
